<?xml version="1.0" encoding="UTF-8"?>
<svg version="1.1" xmlns="http://www.w3.org/2000/svg" width="500" height="500">
<path d="M0 0 C0.99 0 1.98 0 3 0 C5.08790557 4.38939486 7.16891314 8.78197189 9.24389648 13.17749023 C9.94909121 14.66891988 10.65608564 16.15950007 11.36499023 17.64916992 C18.61143126 32.88252691 18.61143126 32.88252691 21 41 C23.0245738 39.06745228 24.42105792 37.36841312 26 35 C26.7425 35.309375 27.485 35.61875 28.25 35.9375 C30.5123958 36.81160747 32.64974079 37.44256673 35 38 C37.12589898 35.06314964 39.25056304 32.12540807 41.375 29.1875 C41.97828125 28.35412109 42.5815625 27.52074219 43.203125 26.66210938 C43.78320312 25.85966797 44.36328125 25.05722656 44.9609375 24.23046875 C45.49509277 23.49207764 46.02924805 22.75368652 46.57958984 21.99291992 C47.7504741 20.35009967 48.88095806 18.67856292 50 17 C51.485 17.495 51.485 17.495 53 18 C51.41692939 22.89055741 48.57217538 26.52580444 45.5 30.5625 C44.50759264 31.8741702 43.51791546 33.18791143 42.53125 34.50390625 C42.09361328 35.07955322 41.65597656 35.6552002 41.20507812 36.24829102 C39.93539176 38.09391494 38.95606123 39.97668829 38 42 C39.65 42.66 41.3 43.32 43 44 C42.5359375 45.1446875 42.5359375 45.1446875 42.0625 46.3125 C41.32106407 48.18789677 40.63771783 50.08684652 40 52 C43.18420845 54.12280563 44.20537255 54.28019537 47.88671875 54.4140625 C48.82451172 54.45273438 49.76230469 54.49140625 50.72851562 54.53125 C52.19321289 54.57765625 52.19321289 54.57765625 53.6875 54.625 C54.67556641 54.66367188 55.66363281 54.70234375 56.68164062 54.7421875 C59.1207861 54.83645399 61.56036747 54.9193159 64 55 C64 59.95 64 64.9 64 70 C63.34 70 62.68 70 62 70 C61.81824219 69.37351562 61.63648438 68.74703125 61.44921875 68.1015625 C61.19785156 67.28429687 60.94648438 66.46703125 60.6875 65.625 C60.44386719 64.81289062 60.20023437 64.00078125 59.94921875 63.1640625 C59.08631815 60.66815371 59.08631815 60.66815371 56 59 C53.37468476 58.83286431 53.37468476 58.83286431 51 59 C51.33 59.66 51.66 60.32 52 61 C51.01196289 63.06298828 51.01196289 63.06298828 49.47265625 65.5703125 C48.92802734 66.46621094 48.38339844 67.36210937 47.82226562 68.28515625 C46.95118164 69.69087891 46.95118164 69.69087891 46.0625 71.125 C45.48564453 72.06988281 44.90878906 73.01476562 44.31445312 73.98828125 C42.88340205 76.33000119 41.44501781 78.66688189 40 81 C38.515 80.505 38.515 80.505 37 80 C36.67 82.31 36.34 84.62 36 87 C38.41760876 86.88573491 40.83347218 86.75900339 43.25 86.625 C43.93191406 86.5940625 44.61382812 86.563125 45.31640625 86.53125 C48.95208223 86.31946305 51.97535523 86.13504337 55 84 C56.28254644 81.46229997 56.28254644 81.46229997 57 79 C57.66 79 58.32 79 59 79 C59 85.6 59 92.2 59 99 C58.34 99 57.68 99 57 99 C56.54625 97.865625 56.0925 96.73125 55.625 95.5625 C54.42904194 91.95278308 54.42904194 91.95278308 52 91 C49.28737884 90.7677354 46.59226874 90.58063765 43.875 90.4375 C42.74384766 90.37272461 42.74384766 90.37272461 41.58984375 90.30664062 C39.72678112 90.2005168 37.86341476 90.09974999 36 90 C36.08053241 94.45909298 36.1934045 98.9167834 36.3125 103.375 C36.33505859 104.64601563 36.35761719 105.91703125 36.38085938 107.2265625 C36.41630859 108.43828125 36.45175781 109.65 36.48828125 110.8984375 C36.51446533 112.01911621 36.54064941 113.13979492 36.56762695 114.29443359 C36.78165161 115.63368896 36.78165161 115.63368896 37 117 C40.16240582 119.10827055 41.50657469 119.33817465 45.1875 119.625 C46.53908203 119.73714844 46.53908203 119.73714844 47.91796875 119.8515625 C48.94857422 119.92503906 48.94857422 119.92503906 50 120 C50 120.66 50 121.32 50 122 C40.1 122 30.2 122 20 122 C20 121.34 20 120.68 20 120 C21.7015625 119.7834375 21.7015625 119.7834375 23.4375 119.5625 C26.80777201 119.38828522 26.80777201 119.38828522 28 118 C28.12197808 116.61949142 28.17768899 115.23302353 28.20532227 113.84741211 C28.22526749 112.96657455 28.24521271 112.085737 28.26576233 111.1782074 C28.28247482 110.22092239 28.29918732 109.26363739 28.31640625 108.27734375 C28.3475779 106.81452721 28.3475779 106.81452721 28.37937927 105.32215881 C28.44498412 102.1940137 28.50381028 99.06578178 28.5625 95.9375 C28.60567483 93.8222565 28.64928877 91.70702191 28.69335938 89.59179688 C28.80067655 84.39462413 28.9024222 79.19736423 29 74 C28.01 74 27.02 74 26 74 C24.54024763 76.05907378 23.31346175 78.04138751 22.09375 80.23828125 C21.7277771 80.87485153 21.3618042 81.51142181 20.98474121 82.1672821 C19.81247442 84.20979669 18.65551316 86.260468 17.5 88.3125 C16.34233944 90.35247393 15.18149464 92.39049884 14.01525879 94.42558289 C13.28961563 95.69345162 12.56925593 96.96436258 11.8548584 98.23860168 C10.1747337 101.18949606 8.58386279 103.76724921 6 106 C5.45730469 105.62746094 4.91460937 105.25492187 4.35546875 104.87109375 C3.28232422 104.16146484 3.28232422 104.16146484 2.1875 103.4375 C1.12595703 102.72400391 1.12595703 102.72400391 0.04296875 101.99609375 C-2.11436427 100.64922909 -2.11436427 100.64922909 -5 102 C-6.66110165 104.16029281 -8.18943143 106.2950884 -9.6875 108.5625 C-10.10322266 109.17802734 -10.51894531 109.79355469 -10.94726562 110.42773438 C-11.97193162 111.94706671 -12.98690678 113.47292657 -14 115 C-15.485 114.505 -15.485 114.505 -17 114 C-15.66586802 110.20543365 -13.98796076 107.4738897 -11.4375 104.375 C-9.32513314 101.80151356 -8.06114974 100.18344921 -7 97 C-8.485 96.505 -8.485 96.505 -10 96 C-8.37959101 91.41326853 -5.98096517 87.48954713 -3.4375 83.375 C-0.30658452 78.39366431 -0.30658452 78.39366431 2 73 C0.9171875 72.5978125 0.9171875 72.5978125 -0.1875 72.1875 C-2.97590126 71.01017502 -5.44095724 69.60854116 -8 68 C-7.34703849 64.6303126 -6.05709258 62.15690992 -4.27734375 59.234375 C-3.73916016 58.34492188 -3.20097656 57.45546875 -2.64648438 56.5390625 C-2.08251953 55.61867187 -1.51855469 54.69828125 -0.9375 53.75 C-0.36966797 52.81414062 0.19816406 51.87828125 0.78320312 50.9140625 C2.18418389 48.60656477 3.59148718 46.30290784 5 44 C8.63 45.98 12.26 47.96 16 50 C15.33084658 44.17155008 15.33084658 44.17155008 13 40 C4.75 39.67 -3.5 39.34 -12 39 C-12.99 41.97 -13.98 44.94 -15 48 C-15.71045732 49.73693747 -16.43576879 51.46802287 -17.1875 53.1875 C-18.69917682 56.92599305 -19.71424044 59.91862608 -19 64 C-15.55549263 66.29633824 -13.06187717 66.54016485 -9 67 C-9 67.66 -9 68.32 -9 69 C-17.91 69 -26.82 69 -36 69 C-35 67 -35 67 -31.75 65.875 C-25.5826338 63.3390193 -23.27486297 56.83974064 -20.75170898 51.02783203 C-19.99236831 49.19089523 -19.2408256 47.3507204 -18.49609375 45.5078125 C-18.09093033 44.52183075 -17.68576691 43.535849 -17.26832581 42.51998901 C-15.98451262 39.39108786 -14.71090105 36.258151 -13.4375 33.125 C-12.57943832 31.02967658 -11.7207201 28.9346219 -10.86132812 26.83984375 C-7.20207358 17.90860979 -3.57438301 8.96555942 0 0 Z M-1 12 C-2.5056651 15.62267294 -4.00356546 19.24850549 -5.5 22.875 C-5.92925781 23.90753906 -6.35851562 24.94007813 -6.80078125 26.00390625 C-7.20683594 26.99003906 -7.61289063 27.97617188 -8.03125 28.9921875 C-8.40830078 29.90339355 -8.78535156 30.81459961 -9.17382812 31.75341797 C-10.11504919 33.91390327 -10.11504919 33.91390327 -10 36 C-3.07 36 3.86 36 11 36 C9.0094197 30.02825911 7.01941634 24.54912406 4.3125 18.9375 C3.99216797 18.26267578 3.67183594 17.58785156 3.34179688 16.89257812 C2.56580539 15.25952141 1.78358474 13.62942689 1 12 C0.34 12 -0.32 12 -1 12 Z " fill="#FFFFFF" transform="translate(233,131)"/>
<path d="M0 0 C5 1 5 1 6.58203125 2.62890625 C6.98808594 3.26699219 7.39414063 3.90507812 7.8125 4.5625 C8.44091797 5.52349609 8.44091797 5.52349609 9.08203125 6.50390625 C9.38496094 6.99761719 9.68789062 7.49132812 10 8 C10.33 5.36 10.66 2.72 11 0 C12.32 0 13.64 0 15 0 C15 5.28 15 10.56 15 16 C10 16 10 16 8.41796875 14.46875 C8.01191406 13.8190625 7.60585937 13.169375 7.1875 12.5 C6.55908203 11.52546875 6.55908203 11.52546875 5.91796875 10.53125 C5.61503906 10.0259375 5.31210938 9.520625 5 9 C4.67 11.31 4.34 13.62 4 16 C2.68 16 1.36 16 0 16 C0 10.72 0 5.44 0 0 Z " fill="#FFFFFF" transform="translate(181,302)"/>
<path d="M0 0 C9.625 -0.25 9.625 -0.25 13 2 C13.27028374 5.71640139 13.180933 8.457201 12 12 C12.87483915 14.16715557 12.87483915 14.16715557 14 16 C11.625 16.1875 11.625 16.1875 9 16 C8.34 15.01 7.68 14.02 7 13 C4.94074861 12.27617533 4.94074861 12.27617533 3 12 C3 13.32 3 14.64 3 16 C2.01 16 1.02 16 0 16 C0 10.72 0 5.44 0 0 Z M3 3 C3 4.65 3 6.3 3 8 C4.98 8 6.96 8 9 8 C9 6.68 9 5.36 9 4 C7.93354885 2.70366379 7.93354885 2.70366379 5.4375 2.9375 C4.633125 2.958125 3.82875 2.97875 3 3 Z " fill="#FFFFFF" transform="translate(292,302)"/>
<path d="M0 0 C2.29296875 0.05859375 2.29296875 0.05859375 5 1 C6.375237 3.41337686 7.36054611 5.49297801 8.3125 8.0625 C8.57611328 8.72572266 8.83972656 9.38894531 9.11132812 10.07226562 C9.75854732 11.70796505 10.38164295 13.3531728 11 15 C9.68 15.33 8.36 15.66 7 16 C6.67 15.01 6.34 14.02 6 13 C3.36 13 0.72 13 -2 13 C-2 13.99 -2 14.98 -2 16 C-3.32 16 -4.64 16 -6 16 C-5.37183502 12.05050296 -4.1354471 8.80107972 -2.4375 5.1875 C-1.98246094 4.21167969 -1.52742187 3.23585938 -1.05859375 2.23046875 C-0.70925781 1.49441406 -0.35992187 0.75835937 0 0 Z M2 5 C1.34 6.65 0.68 8.3 0 10 C1.32 10 2.64 10 4 10 C3.67 8.35 3.34 6.7 3 5 C2.67 5 2.34 5 2 5 Z " fill="#FFFFFF" transform="translate(160,302)"/>
<path d="M0 0 C4.62 0 9.24 0 14 0 C12.9814744 4.07410238 12.17407101 5.26464981 9.4375 8.25 C8.79683594 8.95640625 8.15617187 9.6628125 7.49609375 10.390625 C6.75552734 11.18726563 6.75552734 11.18726563 6 12 C8.64 12.33 11.28 12.66 14 13 C14 13.99 14 14.98 14 16 C9.38 16 4.76 16 0 16 C1.125 10.375 1.125 10.375 4.0625 7.1875 C4.61035156 6.58292969 5.15820312 5.97835938 5.72265625 5.35546875 C6.14417969 4.90816406 6.56570313 4.46085937 7 4 C4.69 3.67 2.38 3.34 0 3 C0 2.01 0 1.02 0 0 Z " fill="#FFFFFF" transform="translate(332,302)"/>
<path d="M0 0 C0.66 1.32 1.32 2.64 2 4 C0.68 4 -0.64 4 -2 4 C-3.67225729 4.30404678 -5.34080104 4.63128912 -7 5 C-7.74957157 8.47147842 -7.74957157 8.47147842 -8 12 C-4.65747276 12.07427838 -2.1964086 12.06546953 1 11 C1.33 12.32 1.66 13.64 2 15 C-2.05594629 17.02797315 -4.62646926 17.23599782 -9 16 C-11.84545762 14.23385389 -12.01955037 12.92459142 -12.875 9.625 C-13.01384714 5.59843289 -12.47120257 4.11188472 -10 1 C-6.78548731 -0.60725635 -3.56387464 -0.05748185 0 0 Z " fill="#FFFFFF" transform="translate(219,302)"/>
<path d="M0 0 C3.96 0 7.92 0 12 0 C12 0.99 12 1.98 12 3 C9.36 3 6.72 3 4 3 C4 4.32 4 5.64 4 7 C6.31 7 8.62 7 11 7 C11 7.99 11 8.98 11 10 C8.69 10 6.38 10 4 10 C4 11.98 4 13.96 4 16 C2.68 16 1.36 16 0 16 C0 10.72 0 5.44 0 0 Z " fill="#FFFFFF" transform="translate(270,302)"/>
<path d="M0 0 C3.24208567 0.35049575 4.61527704 0.56221181 6.8125 3.0625 C7.204375 3.701875 7.59625 4.34125 8 5 C8.4125 4.175 8.825 3.35 9.25 2.5 C9.8275 1.675 10.405 0.85 11 0 C12.32 0 13.64 0 15 0 C14.06253955 3.10083071 13.12912083 5.78824183 11.4375 8.5625 C9.94564512 11.09216697 9.4124301 13.11298928 9 16 C8.01 16 7.02 16 6 16 C5.81824219 15.40832031 5.63648438 14.81664062 5.44921875 14.20703125 C4.03429011 9.75907609 2.52019642 5.96030865 0 2 C0 1.34 0 0.68 0 0 Z " fill="#FFFFFF" transform="translate(230,302)"/>
<path d="M0 0 C2.31 0 4.62 0 7 0 C7.91307373 3.08162384 8.41112802 5.79320141 8 9 C6.375 10.875 6.375 10.875 4 12 C0.75 11.6875 0.75 11.6875 -2 11 C-1.34 10.67 -0.68 10.34 0 10 C0 6.7 0 3.4 0 0 Z M4 1 C3.67 1.99 3.34 2.98 3 4 C3.66 4 4.32 4 5 4 C4.67 3.01 4.34 2.02 4 1 Z M3 6 C2.67 7.32 2.34 8.64 2 10 C2.99 9.67 3.98 9.34 5 9 C4.67 8.01 4.34 7.02 4 6 C3.67 6 3.34 6 3 6 Z " fill="#FFFFFF" transform="translate(183,339)"/>
<path d="M0 0 C1.32 0 2.64 0 4 0 C4 5.28 4 10.56 4 16 C2.68 16 1.36 16 0 16 C0 10.72 0 5.44 0 0 Z " fill="#FFFFFF" transform="translate(317,302)"/>
<path d="M0 0 C1.65 0 3.3 0 5 0 C4.67 1.32 4.34 2.64 4 4 C3.67 4 3.34 4 3 4 C3.66 4.66 4.32 5.32 5 6 C4.625 8.625 4.625 8.625 4 11 C2.02 11.33 0.04 11.66 -2 12 C-2.33 10.68 -2.66 9.36 -3 8 C-2.34 7.67 -1.68 7.34 -1 7 C-0.01 7.99 0.98 8.98 2 10 C0.68 8.02 -0.64 6.04 -2 4 C-1.34 2.68 -0.68 1.36 0 0 Z " fill="#FFFFFF" transform="translate(267,339)"/>
<path d="M0 0 C1.134375 0.020625 2.26875 0.04125 3.4375 0.0625 C3.03624358 5.68008986 1.31167866 8.18832134 -2.5625 12.0625 C-3.5525 12.0625 -4.5425 12.0625 -5.5625 12.0625 C-5.2325 11.0725 -4.9025 10.0825 -4.5625 9.0625 C-3.9025 9.0625 -3.2425 9.0625 -2.5625 9.0625 C-2.5625 6.7525 -2.5625 4.4425 -2.5625 2.0625 C-3.2225 1.7325 -3.8825 1.4025 -4.5625 1.0625 C-3.5625 0.0625 -3.5625 0.0625 0 0 Z M0.4375 2.0625 C1.4375 4.0625 1.4375 4.0625 1.4375 4.0625 Z " fill="#FFFFFF" transform="translate(246.5625,342.9375)"/>
<path d="M0 0 C2.31 0 4.62 0 7 0 C7.33 1.98 7.66 3.96 8 6 C6.02 6.99 6.02 6.99 4 8 C3.67 7.34 3.34 6.68 3 6 C2.67 6.66 2.34 7.32 2 8 C1.34 8 0.68 8 0 8 C0 5.33333333 0 2.66666667 0 0 Z " fill="#FFFFFF" transform="translate(311,343)"/>
<path d="M0 0 C0.61875 0.165 1.2375 0.33 1.875 0.5 C4.16786836 1.23577017 4.16786836 1.23577017 7 0 C7.33 1.98 7.66 3.96 8 6 C5.64561267 7.42944945 4.51967567 8.08661261 1.75 7.625 C1.1725 7.41875 0.595 7.2125 0 7 C-0.38133299 5.0085944 -0.71325582 3.00720923 -1 1 C-0.67 0.67 -0.34 0.34 0 0 Z " fill="#FFFFFF" transform="translate(220,343)"/>
<path d="M0 0 C0.33 1.98 0.66 3.96 1 6 C-2.08809695 7.76462683 -3.23312136 8 -7 8 C-7.36275695 3.52599758 -7.36275695 3.52599758 -5.75 1.1875 C-4 0 -4 0 0 0 Z M-4 2 C-3 4 -3 4 -3 4 Z " fill="#FFFFFF" transform="translate(284,343)"/>
<path d="M0 0 C0.33 1.98 0.66 3.96 1 6 C-2.08809695 7.76462683 -3.23312136 8 -7 8 C-7.36275695 3.52599758 -7.36275695 3.52599758 -5.75 1.1875 C-4 0 -4 0 0 0 Z M-4 2 C-3 4 -3 4 -3 4 Z " fill="#FFFFFF" transform="translate(214,343)"/>
<path d="M0 0 C2.625 0.375 2.625 0.375 5 1 C4.25 5.75 4.25 5.75 2 8 C-0.125 7.625 -0.125 7.625 -2 7 C-2.125 4.625 -2.125 4.625 -2 2 C-1.34 1.34 -0.68 0.68 0 0 Z M1 1 C0.67 2.65 0.34 4.3 0 6 C0.66 6 1.32 6 2 6 C2 4.35 2 2.7 2 1 C1.67 1 1.34 1 1 1 Z " fill="#FFFFFF" transform="translate(301,343)"/>
<path d="M0 0 C-0.33 4.29 -0.66 8.58 -1 13 C-1.99 13.33 -2.98 13.66 -4 14 C-4.08082094 12.04233719 -4.13910778 10.08373272 -4.1875 8.125 C-4.22230469 7.03445313 -4.25710938 5.94390625 -4.29296875 4.8203125 C-4.19628906 3.88960938 -4.09960938 2.95890625 -4 2 C-1 0 -1 0 0 0 Z " fill="#FFFFFF" transform="translate(294,337)"/>
<path d="M0 0 C1.32 0 2.64 0 4 0 C4 3 4 3 2.5 4.6875 C2.005 5.120625 1.51 5.55375 1 6 C1.99 5.67 2.98 5.34 4 5 C4 5.66 4 6.32 4 7 C2.34385343 7.38218767 0.67542976 7.71395102 -1 8 C-2 7 -2 7 -2.1875 4.5625 C-2 2 -2 2 0 0 Z " fill="#FFFFFF" transform="translate(198,343)"/>
<path d="M0 0 C0.99 0.33 1.98 0.66 3 1 C3 1.66 3 2.32 3 3 C2.34 3 1.68 3 1 3 C1 3.99 1 4.98 1 6 C1.66 6.33 2.32 6.66 3 7 C2.34 7.66 1.68 8.32 1 9 C0.01 9 -0.98 9 -2 9 C-2 6.36 -2 3.72 -2 1 C-1.34 0.67 -0.68 0.34 0 0 Z " fill="#FFFFFF" transform="translate(235,342)"/>
</svg>
