<?xml version="1.0" encoding="UTF-8"?>
<svg version="1.1" xmlns="http://www.w3.org/2000/svg" width="500" height="500">
<path d="M0 0 C165 0 330 0 500 0 C500 165 500 330 500 500 C335 500 170 500 0 500 C0 335 0 170 0 0 Z " fill="#FEFEFE" transform="translate(0,0)"/>
<path d="M0 0 C2.25886305 2.08156397 3.67889693 3.99454331 5.0246582 6.74951172 C5.57456169 7.866147 5.57456169 7.866147 6.13557434 9.00534058 C6.52009262 9.80537506 6.9046109 10.60540955 7.30078125 11.4296875 C7.90082222 12.67070724 7.90082222 12.67070724 8.51298523 13.9367981 C9.35443538 15.68515333 10.19222795 17.43527294 11.02661133 19.18701172 C12.30842301 21.86647757 13.61559375 24.53257519 14.92382812 27.19921875 C15.73857566 28.90027792 16.55177956 30.60207749 17.36328125 32.3046875 C17.75792068 33.10067352 18.15256012 33.89665955 18.55915833 34.71676636 C21.15955443 40.28107286 21.15955443 40.28107286 20.35229492 43.91845703 C19 46 19 46 17 48 C16.32591692 46.73308493 15.66099503 45.46129251 15 44.1875 C14.62875 43.47980469 14.2575 42.77210938 13.875 42.04296875 C13 40 13 40 13 37 C4.42 37.33 -4.16 37.66 -13 38 C-14.32 40.97 -15.64 43.94 -17 47 C-17.41765625 47.91910156 -17.8353125 48.83820313 -18.265625 49.78515625 C-20.5834513 55.147429 -21.4323795 59.16287679 -21 65 C-17.7 65.66 -14.4 66.32 -11 67 C-11 67.33 -11 67.66 -11 68 C-19.25 68 -27.5 68 -36 68 C-34.02 67.01 -34.02 67.01 -32 66 C-27.6376699 63.05284178 -25.82533333 60.28324236 -23.69921875 55.49609375 C-23.40842941 54.8471666 -23.11764008 54.19823944 -22.81803894 53.52964783 C-18.94741292 44.79420467 -15.39040487 35.92059867 -11.8125 27.0625 C-10.76155168 24.46286222 -9.70937141 21.86375848 -8.65324402 19.26622009 C-8.00345876 17.66798643 -7.35651585 16.06859274 -6.71308899 14.4677887 C-4.69979062 9.51441825 -2.44287871 4.75686603 0 0 Z " fill="#4F4F4F" transform="translate(234,132)"/>
<path d="M0 0 C1.98 0.66 3.96 1.32 6 2 C6 4.97 6 7.94 6 11 C8.77236494 10.91308261 11.54147078 10.80622639 14.3125 10.6875 C15.09818359 10.66494141 15.88386719 10.64238281 16.69335938 10.61914062 C17.45068359 10.58369141 18.20800781 10.54824219 18.98828125 10.51171875 C19.68477783 10.48553467 20.38127441 10.45935059 21.09887695 10.43237305 C24.68749251 9.61621302 26.03428872 6.94856692 28 4 C28 9.94 28 15.88 28 22 C27.34 20.68 26.68 19.36 26 18 C24.42151927 16.02668877 23.57934619 15.1317609 21.09887695 14.56762695 C20.40238037 14.54144287 19.70588379 14.51525879 18.98828125 14.48828125 C18.30548096 14.45516846 17.62268066 14.42205566 16.91918945 14.38793945 C15.62887817 14.35059692 15.62887817 14.35059692 14.3125 14.3125 C10.1978125 14.1578125 10.1978125 14.1578125 6 14 C6.33 23.24 6.66 32.48 7 42 C11.39828259 44.1991413 14.18550592 44.51855059 19 45 C19 45.33 19 45.66 19 46 C9.43 46 -0.14 46 -10 46 C-10 45.67 -10 45.34 -10 45 C-9.43410156 44.89042969 -8.86820313 44.78085938 -8.28515625 44.66796875 C-7.55167969 44.50941406 -6.81820313 44.35085937 -6.0625 44.1875 C-5.33160156 44.03667969 -4.60070312 43.88585937 -3.84765625 43.73046875 C-3.23792969 43.48941406 -2.62820313 43.24835938 -2 43 C-1.11434414 40.34303242 -0.8549738 38.71809917 -0.79467773 35.98754883 C-0.77473251 35.18694534 -0.75478729 34.38634186 -0.73423767 33.56147766 C-0.71752518 32.70201035 -0.70081268 31.84254303 -0.68359375 30.95703125 C-0.6524221 29.63163582 -0.6524221 29.63163582 -0.62062073 28.27946472 C-0.55524246 25.45722215 -0.49629472 22.63488665 -0.4375 19.8125 C-0.39430363 17.89907894 -0.35068898 15.98566727 -0.30664062 14.07226562 C-0.19957305 9.38160563 -0.09827248 4.69085217 0 0 Z " fill="#3C3C3C" transform="translate(263,206)"/>
<path d="M0 0 C0.66 0 1.32 0 2 0 C3.83944626 3.95552103 5.67051553 7.91486285 7.5 11.875 C8.02464844 13.00292969 8.54929688 14.13085938 9.08984375 15.29296875 C9.58613281 16.36933594 10.08242187 17.44570312 10.59375 18.5546875 C11.05458984 19.54968262 11.51542969 20.54467773 11.99023438 21.56982422 C13 24 13 24 13 26 C5.41 26 -2.18 26 -10 26 C-6.625 15.875 -6.625 15.875 -5.17578125 12.40234375 C-4.86962891 11.66435547 -4.56347656 10.92636719 -4.24804688 10.16601562 C-3.93931641 9.43060547 -3.63058594 8.69519531 -3.3125 7.9375 C-2.83200195 6.78217773 -2.83200195 6.78217773 -2.34179688 5.60351562 C-1.56400964 3.73450451 -0.7824152 1.86707847 0 0 Z " fill="#F7F7F6" transform="translate(232,141)"/>
<path d="M0 0 C0.66 0 1.32 0 2 0 C0.38094112 4.94391193 -2.48533635 8.7685542 -5.5 12.9375 C-6.03826416 13.69111816 -6.57652832 14.44473633 -7.13110352 15.22119141 C-8.74895711 17.48451485 -10.37342912 19.74293588 -12 22 C-13.64757863 24.29041826 -15.29352718 26.58199228 -16.9375 28.875 C-17.33606201 29.43018311 -17.73462402 29.98536621 -18.14526367 30.55737305 C-21.60918159 35.40439806 -24.96294418 40.32351065 -28.3125 45.25 C-33.10503812 52.29449603 -38.01763449 59.23662691 -43.02978516 66.1262207 C-47.31127701 72.02024776 -51.5134502 77.96695554 -55.6875 83.9375 C-56.28812256 84.79657959 -56.88874512 85.65565918 -57.50756836 86.54077148 C-59.69720213 89.67843547 -61.87755049 92.81632574 -64 96 C-64.66 96 -65.32 96 -66 96 C-64.35770168 90.77167054 -61.10075586 86.7784665 -57.875 82.4375 C-54.14678696 77.35394314 -50.45004955 72.27872388 -47 67 C-43.74425052 62.03788286 -40.30510483 57.23374406 -36.8125 52.4375 C-31.63594808 45.32642941 -26.62233664 38.12005397 -21.6784668 30.84570312 C-17.99063619 25.42648347 -14.23897412 20.06038558 -10.40356445 14.74462891 C-7.30682093 10.45248201 -4.3172663 6.09456643 -1.375 1.6953125 C-0.92125 1.13585937 -0.4675 0.57640625 0 0 Z " fill="#525252" transform="translate(283,149)"/>
<path d="M0 0 C4.59471646 4.01995052 6.64884963 9.97822073 9.25 15.375 C9.8171875 16.51195312 10.384375 17.64890625 10.96875 18.8203125 C11.49984375 19.91859375 12.0309375 21.016875 12.578125 22.1484375 C13.06700195 23.15052246 13.55587891 24.15260742 14.05957031 25.18505859 C15.11365067 28.34018491 15.07214116 29.88000179 14 33 C13.34 33.66 12.68 34.32 12 35 C8.58193817 29.92469606 5.79102153 24.71259631 3.1875 19.1875 C2.71654907 18.20027954 2.71654907 18.20027954 2.23608398 17.19311523 C0.88692357 14.28196593 0 12.24737913 0 9 C-0.99 9.33 -1.98 9.66 -3 10 C-2.25 3.375 -2.25 3.375 0 0 Z " fill="#414141" transform="translate(234,132)"/>
<path d="M0 0 C8.36923077 -0.36923077 8.36923077 -0.36923077 11.5625 1.5 C12.036875 1.995 12.51125 2.49 13 3 C12.67 5.31 12.34 7.62 12 10 C11.34 10 10.68 10 10 10 C10.99 11.98 11.98 13.96 13 16 C11.68 15.67 10.36 15.34 9 15 C8.67 13.68 8.34 12.36 8 11 C6.35 11 4.7 11 3 11 C3 12.65 3 14.3 3 16 C2.01 16 1.02 16 0 16 C0 10.72 0 5.44 0 0 Z " fill="#6A6A6A" transform="translate(292,302)"/>
<path d="M0 0 C0.99 0 1.98 0 3 0 C4.0044134 2.2898234 5.00367612 4.5816599 6 6.875 C6.28617188 7.52597656 6.57234375 8.17695313 6.8671875 8.84765625 C9 13.7734375 9 13.7734375 9 16 C8.01 16 7.02 16 6 16 C6 15.01 6 14.02 6 13 C4.5199159 13.11362262 3.04089926 13.24122908 1.5625 13.375 C0.73878906 13.44460938 -0.08492187 13.51421875 -0.93359375 13.5859375 C-1.61550781 13.72257812 -2.29742187 13.85921875 -3 14 C-3.33 14.66 -3.66 15.32 -4 16 C-4.99 15.67 -5.98 15.34 -7 15 C-6.02373969 12.68623321 -5.04414868 10.37397937 -4.0625 8.0625 C-3.78470703 7.40314453 -3.50691406 6.74378906 -3.22070312 6.06445312 C-1.11328125 1.11328125 -1.11328125 1.11328125 0 0 Z " fill="#545454" transform="translate(161,302)"/>
<path d="M0 0 C0.33 0 0.66 0 1 0 C1 2.97 1 5.94 1 9 C3.77236494 8.91308261 6.54147078 8.80622639 9.3125 8.6875 C10.09818359 8.66494141 10.88386719 8.64238281 11.69335938 8.61914062 C12.45068359 8.58369141 13.20800781 8.54824219 13.98828125 8.51171875 C14.68477783 8.48553467 15.38127441 8.45935059 16.09887695 8.43237305 C19.68749251 7.61621302 21.03428872 4.94856692 23 2 C23 7.94 23 13.88 23 20 C22.34 18.68 21.68 17.36 21 16 C19.42151927 14.02668877 18.57934619 13.1317609 16.09887695 12.56762695 C15.40238037 12.54144287 14.70588379 12.51525879 13.98828125 12.48828125 C13.30548096 12.45516846 12.62268066 12.42205566 11.91918945 12.38793945 C11.05898193 12.36304443 10.19877441 12.33814941 9.3125 12.3125 C5.1978125 12.1578125 5.1978125 12.1578125 1 12 C1 20.58 1 29.16 1 38 C0.67 38 0.34 38 0 38 C0 25.46 0 12.92 0 0 Z " fill="#757575" transform="translate(268,208)"/>
<path d="M0 0 C4.29 0 8.58 0 13 0 C11.93795631 4.24817476 10.68632824 5.93395323 7.9375 9.25 C7.20402344 10.14203125 6.47054688 11.0340625 5.71484375 11.953125 C5.14894531 12.62859375 4.58304687 13.3040625 4 14 C6.97 14 9.94 14 13 14 C13 14.66 13 15.32 13 16 C8.71 16 4.42 16 0 16 C1.61382035 11.96544911 2.40496646 10.20318936 5.125 7.1875 C5.66382813 6.58292969 6.20265625 5.97835938 6.7578125 5.35546875 C7.16773438 4.90816406 7.57765625 4.46085937 8 4 C5.36 3.67 2.72 3.34 0 3 C0 2.01 0 1.02 0 0 Z " fill="#666666" transform="translate(332,302)"/>
<path d="M0 0 C4.1706931 1.04267328 4.54040726 1.15720955 6.75 4.4375 C7.17796875 5.05496094 7.6059375 5.67242187 8.046875 6.30859375 C9 8 9 8 9 10 C9.66 10 10.32 10 11 10 C11 6.7 11 3.4 11 0 C11.66 0 12.32 0 13 0 C13 4.95 13 9.9 13 15 C8.40804906 13.85201226 8.12179476 13.26471427 5.75 9.4375 C5.22921875 8.61121094 4.7084375 7.78492188 4.171875 6.93359375 C3.78515625 6.29550781 3.3984375 5.65742188 3 5 C2.67 8.3 2.34 11.6 2 15 C1.34 15 0.68 15 0 15 C0 10.05 0 5.1 0 0 Z " fill="#3D3D3D" transform="translate(182,303)"/>
<path d="M0 0 C3.63 0 7.26 0 11 0 C11 0.99 11 1.98 11 3 C8.36 3 5.72 3 3 3 C3 4.32 3 5.64 3 7 C5.31 7 7.62 7 10 7 C10 7.99 10 8.98 10 10 C7.69 10 5.38 10 3 10 C3 11.98 3 13.96 3 16 C2.01 16 1.02 16 0 16 C0 10.72 0 5.44 0 0 Z " fill="#6E6E6E" transform="translate(270,302)"/>
<path d="M0 0 C1.5778125 0.4021875 1.5778125 0.4021875 3.1875 0.8125 C3.5175 1.8025 3.8475 2.7925 4.1875 3.8125 C2.888125 3.791875 1.58875 3.77125 0.25 3.75 C-1.10415633 3.72850546 -2.46006083 3.74101801 -3.8125 3.8125 C-5.15654775 4.93086224 -5.15654775 4.93086224 -4.9375 7.8125 C-5.15654775 10.69413776 -5.15654775 10.69413776 -3.8125 11.8125 C-1.14191149 11.95365161 1.51182238 11.85497107 4.1875 11.8125 C4.1875 12.8025 4.1875 13.7925 4.1875 14.8125 C1.29888291 16.25680855 -0.60897701 16.18938506 -3.8125 15.8125 C-7.13524404 13.35655875 -8.58868008 11.8868356 -9.4375 7.8125 C-8.27704079 2.2422958 -5.72852065 -0.28173052 0 0 Z " fill="#525252" transform="translate(215.8125,302.1875)"/>
<path d="M0 0 C7.26 0 14.52 0 22 0 C22 4.62 22 9.24 22 14 C21.34 14 20.68 14 20 14 C19.64192708 12.01432292 19.28385417 10.02864583 18.92578125 8.04296875 C17.57545137 5.06312686 15.94637144 4.33590694 13 3 C9.91609259 2.50327009 9.91609259 2.50327009 6.75 2.4375 C3.546875 2.30859375 3.546875 2.30859375 1 2 C0.67 1.34 0.34 0.68 0 0 Z " fill="#585858" transform="translate(275,185)"/>
<path d="M0 0 C0.99 0 1.98 0 3 0 C3.99 1.98 4.98 3.96 6 6 C8.0245738 4.06745228 9.42105792 2.36841312 11 0 C11.99 0.33 12.98 0.66 14 1 C13.65066406 1.58007812 13.30132812 2.16015625 12.94140625 2.7578125 C10.36970109 7.17269444 8.40004495 10.79941563 8 16 C7.01 16 6.02 16 5 16 C4.87625 14.4840625 4.87625 14.4840625 4.75 12.9375 C4.16227462 8.62166584 2.24385159 5.69149778 0 2 C0 1.34 0 0.68 0 0 Z " fill="#4A4A4A" transform="translate(231,302)"/>
<path d="M0 0 C1.98 0 3.96 0 6 0 C4.68 0.33 3.36 0.66 2 1 C2 3.31 2 5.62 2 8 C6.455 7.01 6.455 7.01 11 6 C11 6.99 11 7.98 11 9 C10.34 9 9.68 9 9 9 C9.99 10.98 10.98 12.96 12 15 C10.68 14.67 9.36 14.34 8 14 C7.67 12.68 7.34 11.36 7 10 C5.35 10 3.7 10 2 10 C2 11.65 2 13.3 2 15 C1.34 15 0.68 15 0 15 C0 10.05 0 5.1 0 0 Z " fill="#414141" transform="translate(293,303)"/>
<path d="M0 0 C3 3.75 3 3.75 3 6 C3.66 6.33 4.32 6.66 5 7 C5 7.66 5 8.32 5 9 C4.04287109 9.07347656 4.04287109 9.07347656 3.06640625 9.1484375 C2.24011719 9.22320312 1.41382813 9.29796875 0.5625 9.375 C-0.26121094 9.44460938 -1.08492187 9.51421875 -1.93359375 9.5859375 C-2.61550781 9.72257812 -3.29742187 9.85921875 -4 10 C-4.33 10.66 -4.66 11.32 -5 12 C-5.99 11.67 -6.98 11.34 -8 11 C-7.01 8.69 -6.02 6.38 -5 4 C-4.01 4.33 -3.02 4.66 -2 5 C-1.34 3.35 -0.68 1.7 0 0 Z " fill="#5C5C5C" transform="translate(162,306)"/>
<path d="M0 0 C1.2375 0.7115625 1.2375 0.7115625 2.5 1.4375 C6.52795901 3.23569599 9.63173579 3.6234255 14 4 C14 4.33 14 4.66 14 5 C4.43 5 -5.14 5 -15 5 C-15 4.67 -15 4.34 -15 4 C-14.00097656 3.79503906 -13.00195312 3.59007812 -11.97265625 3.37890625 C-10.68230469 3.10949219 -9.39195312 2.84007812 -8.0625 2.5625 C-6.77472656 2.29566406 -5.48695313 2.02882812 -4.16015625 1.75390625 C-1.15361121 1.32818384 -1.15361121 1.32818384 0 0 Z " fill="#4A4A4A" transform="translate(268,247)"/>
<path d="M0 0 C0.66 0.99 1.32 1.98 2 3 C2.99 2.01 3.98 1.02 5 0 C5.02689216 1.47906892 5.04634621 2.95827483 5.0625 4.4375 C5.07410156 5.26121094 5.08570313 6.08492188 5.09765625 6.93359375 C5 9 5 9 4 10 C2.00041636 10.04080783 -0.00045254 10.04254356 -2 10 C-1.85950482 8.52031676 -1.71245174 7.04125484 -1.5625 5.5625 C-1.48128906 4.73878906 -1.40007812 3.91507812 -1.31640625 3.06640625 C-1 1 -1 1 0 0 Z " fill="#878787" transform="translate(185,340)"/>
<path d="M0 0 C1.98 0 3.96 0 6 0 C6.38218767 1.65614657 6.71395102 3.32457024 7 5 C6 6 6 6 2.9375 6.0625 C1.4834375 6.0315625 1.4834375 6.0315625 0 6 C0 4.02 0 2.04 0 0 Z " fill="#F6F6F6" transform="translate(295,305)"/>
<path d="M0 0 C0.33 0 0.66 0 1 0 C1.66 1.98 2.32 3.96 3 6 C5.64 6 8.28 6 11 6 C11 6.99 11 7.98 11 9 C8.26094655 10.36952673 6.02912668 10.12621361 3 10 C2.34 9.67 1.68 9.34 1 9 C0.5859375 6.93359375 0.5859375 6.93359375 0.375 4.4375 C0.30023438 3.61121094 0.22546875 2.78492188 0.1484375 1.93359375 C0.09945312 1.29550781 0.05046875 0.65742188 0 0 Z " fill="#606060" transform="translate(209,308)"/>
<path d="M0 0 C1.32 0 2.64 0 4 0 C3.67 2.31 3.34 4.62 3 7 C1.02 7 -0.96 7 -3 7 C-2.25 2.25 -2.25 2.25 0 0 Z " fill="#979797" transform="translate(280,343)"/>
<path d="M0 0 C1.32 0 2.64 0 4 0 C3.67 2.31 3.34 4.62 3 7 C1.02 7 -0.96 7 -3 7 C-2.25 2.25 -2.25 2.25 0 0 Z " fill="#979797" transform="translate(210,343)"/>
<path d="M0 0 C0.66 0 1.32 0 2 0 C2 0.66 2 1.32 2 2 C3.32 2.33 4.64 2.66 6 3 C4.92598892 5.91517292 4.22189824 7.77810176 2 10 C-1.07692308 4.58461538 -1.07692308 4.58461538 -0.6875 1.625 C-0.460625 1.08875 -0.23375 0.5525 0 0 Z " fill="#454442" transform="translate(249,170)"/>
<path d="M0 0 C0.66 0.33 1.32 0.66 2 1 C0.57455646 3.1755197 -0.86414548 5.33981854 -2.3125 7.5 C-2.71662109 8.12003906 -3.12074219 8.74007812 -3.53710938 9.37890625 C-4.61492467 10.97372238 -5.80183832 12.4935031 -7 14 C-7.99 14 -8.98 14 -10 14 C-8.52208672 11.85329364 -7.0427346 9.70760477 -5.5625 7.5625 C-5.14162109 6.95083984 -4.72074219 6.33917969 -4.28710938 5.70898438 C-1.11328125 1.11328125 -1.11328125 1.11328125 0 0 Z " fill="#4F4F4F" transform="translate(261,181)"/>
<path d="M0 0 C0.66 0 1.32 0 2 0 C2 4.95 2 9.9 2 15 C1.01 15 0.02 15 -1 15 C-0.67 10.05 -0.34 5.1 0 0 Z " fill="#3C3C3C" transform="translate(193,303)"/>
<path d="M0 0 C0.66 0.99 1.32 1.98 2 3 C1.3203125 5.48046875 1.3203125 5.48046875 0.125 8.1875 C-0.45894531 9.53908203 -0.45894531 9.53908203 -1.0546875 10.91796875 C-1.36664063 11.60503906 -1.67859375 12.29210937 -2 13 C-2.99 12.67 -3.98 12.34 -5 12 C-3.35 8.04 -1.7 4.08 0 0 Z " fill="#535353" transform="translate(219,167)"/>
<path d="M0 0 C3.96 0.33 7.92 0.66 12 1 C12 1.66 12 2.32 12 3 C7.71 3 3.42 3 -1 3 C-0.67 2.01 -0.34 1.02 0 0 Z " fill="#3C3C3C" transform="translate(333,315)"/>
<path d="M0 0 C0.99 0.33 1.98 0.66 3 1 C3.94921875 3.06640625 3.94921875 3.06640625 4.6875 5.5625 C5.06455078 6.80193359 5.06455078 6.80193359 5.44921875 8.06640625 C5.63097656 8.70449219 5.81273437 9.34257812 6 10 C5.01 10 4.02 10 3 10 C3 8.35 3 6.7 3 5 C1.02 5 -0.96 5 -3 5 C-1.68 4.67 -0.36 4.34 1 4 C0.67 2.68 0.34 1.36 0 0 Z " fill="#4B4B4B" transform="translate(164,308)"/>
<path d="M0 0 C3.3 0 6.6 0 10 0 C10 0.66 10 1.32 10 2 C7.36 2 4.72 2 2 2 C2 3.32 2 4.64 2 6 C1.34 6 0.68 6 0 6 C0 4.02 0 2.04 0 0 Z " fill="#4A4A4A" transform="translate(271,303)"/>
<path d="M0 0 C0.66 0 1.32 0 2 0 C1.45660208 4.56454251 0.20536179 7.9728176 -2 12 C-2.66 12 -3.32 12 -4 12 C-2.66666667 8 -1.33333333 4 0 0 Z " fill="#4E4E4E" transform="translate(224,154)"/>
<path d="M0 0 C0.66 0 1.32 0 2 0 C2.33 0.99 2.66 1.98 3 3 C3.66 2.34 4.32 1.68 5 1 C5 2.98 5 4.96 5 7 C3.35 7 1.7 7 0 7 C0 4.69 0 2.38 0 0 Z " fill="#7B7B7B" transform="translate(221,343)"/>
<path d="M0 0 C0.99 0 1.98 0 3 0 C2.34 3.96 1.68 7.92 1 12 C0.34 12 -0.32 12 -1 12 C-0.67 8.04 -0.34 4.08 0 0 Z " fill="#7F7F7F" transform="translate(291,338)"/>
<path d="M0 0 C0.66 0.66 1.32 1.32 2 2 C0.88321917 3.6721852 -0.24366352 5.33762803 -1.375 7 C-2.00148437 7.928125 -2.62796875 8.85625 -3.2734375 9.8125 C-3.84320313 10.534375 -4.41296875 11.25625 -5 12 C-5.66 12 -6.32 12 -7 12 C-5.44298069 7.32894208 -2.91552627 3.91294315 0 0 Z " fill="#555555" transform="translate(224,233)"/>
<path d="M0 0 C0.99 0 1.98 0 3 0 C3.66 1.65 4.32 3.3 5 5 C5.66 5 6.32 5 7 5 C6.34 6.32 5.68 7.64 5 9 C4.16094435 7.87926138 3.32892169 6.75325453 2.5 5.625 C2.0359375 4.99851562 1.571875 4.37203125 1.09375 3.7265625 C0 2 0 2 0 0 Z " fill="#4B4B4B" transform="translate(186,308)"/>
<path d="M0 0 C0.99 0.33 1.98 0.66 3 1 C1.68 3.31 0.36 5.62 -1 8 C-2.32 7.67 -3.64 7.34 -5 7 C-3.35 4.69 -1.7 2.38 0 0 Z " fill="#5D5D5D" transform="translate(242,302)"/>
<path d="M0 0 C2.0625 2.1875 2.0625 2.1875 4 5 C3.75 7.8125 3.75 7.8125 3 10 C2.34 9.67 1.68 9.34 1 9 C0.4375 7.1875 0.4375 7.1875 0 5 C-0.20625 4.278125 -0.4125 3.55625 -0.625 2.8125 C-0.74875 2.214375 -0.8725 1.61625 -1 1 C-0.67 0.67 -0.34 0.34 0 0 Z " fill="#606060" transform="translate(267,340)"/>
<path d="M0 0 C3.96 0 7.92 0 12 0 C10 4 10 4 8 5 C8 3.68 8 2.36 8 1 C5.36 1 2.72 1 0 1 C0 0.67 0 0.34 0 0 Z " fill="#3E3E3E" transform="translate(333,303)"/>
<path d="M0 0 C0.99 0.33 1.98 0.66 3 1 C0.03 4.96 0.03 4.96 -3 9 C-3.66 8.34 -4.32 7.68 -5 7 C-3.35 4.69 -1.7 2.38 0 0 Z " fill="#5D5D5D" transform="translate(243,206)"/>
<path d="M0 0 C0.66 0 1.32 0 2 0 C2 2.97 2 5.94 2 9 C0.68 7.35 -0.64 5.7 -2 4 C-1.34 2.68 -0.68 1.36 0 0 Z " fill="#3C3C3C" transform="translate(294,186)"/>
<path d="M0 0 C2.64465038 3.1254959 3.84414715 6.08788267 5 10 C4.34 9.67 3.68 9.34 3 9 C3 8.34 3 7.68 3 7 C2.01 7 1.02 7 0 7 C-1.04449911 3.86650268 -0.93423645 3.01031744 0 0 Z " fill="#515151" transform="translate(244,152)"/>
<path d="M0 0 C0.66 0.33 1.32 0.66 2 1 C1.67 2.32 1.34 3.64 1 5 C1 4.01 1 3.02 1 2 C0.34 2 -0.32 2 -1 2 C-1 3.65 -1 5.3 -1 7 C-1.66 7 -2.32 7 -3 7 C-3.33 5.35 -3.66 3.7 -4 2 C-2.125 0.9375 -2.125 0.9375 0 0 Z " fill="#E0E0E0" transform="translate(304,342)"/>
<path d="M0 0 C3 3.75 3 3.75 3 6 C1.35 6 -0.3 6 -2 6 C-1.125 1.125 -1.125 1.125 0 0 Z " fill="#EAEAEA" transform="translate(162,306)"/>
<path d="M0 0 C0.99 0.66 1.98 1.32 3 2 C2.34 3.65 1.68 5.3 1 7 C0.01 6.34 -0.98 5.68 -2 5 C-1.34 3.35 -0.68 1.7 0 0 Z " fill="#393836" transform="translate(246,160)"/>
<path d="M0 0 C0.33 1.32 0.66 2.64 1 4 C-0.4375 6.25 -0.4375 6.25 -2 8 C-2.99 7.67 -3.98 7.34 -5 7 C-3.35 4.69 -1.7 2.38 0 0 Z " fill="#5C5C5C" transform="translate(266,173)"/>
<path d="M0 0 C0.99 0 1.98 0 3 0 C4.125 2.3125 4.125 2.3125 5 5 C4.01 6.485 4.01 6.485 3 8 C0 2.25 0 2.25 0 0 Z " fill="#616161" transform="translate(231,302)"/>
<path d="M0 0 C0.33 1.32 0.66 2.64 1 4 C-0.4375 6.25 -0.4375 6.25 -2 8 C-2.99 7.67 -3.98 7.34 -5 7 C-3.35 4.69 -1.7 2.38 0 0 Z " fill="#ECECEC" transform="translate(251,198)"/>
<path d="M0 0 C0.66 0.66 1.32 1.32 2 2 C1.01 2.66 0.02 3.32 -1 4 C-1 4.99 -1 5.98 -1 7 C-1.99 6.67 -2.98 6.34 -4 6 C-3.6875 4.125 -3.6875 4.125 -3 2 C-2.01 1.34 -1.02 0.68 0 0 Z " fill="#757575" transform="translate(200,343)"/>
<path d="M0 0 C0.66 0.33 1.32 0.66 2 1 C-0.475 4.465 -0.475 4.465 -3 8 C-3.33 7.01 -3.66 6.02 -4 5 C-2.0625 2.3125 -2.0625 2.3125 0 0 Z " fill="#4D4D4D" transform="translate(271,167)"/>
</svg>
